<?xml version="1.0" standalone="no"?><!DOCTYPE svg PUBLIC "-//W3C//DTD SVG 1.1//EN" "http://www.w3.org/Graphics/SVG/1.1/DTD/svg11.dtd"><svg t="1646060778651" class="icon" viewBox="0 0 1024 1024" version="1.1" xmlns="http://www.w3.org/2000/svg" p-id="8427" xmlns:xlink="http://www.w3.org/1999/xlink" width="48" height="48"><defs><style type="text/css"></style></defs><path d="M947 380.4c-17.6-37.2-54.8-59.3-99.3-59.3-5.2 0-10.5 0.4-15.8 1 0.1-14.7 0.1-29.2 0.1-43.6v-15.6c0-15.5-12.5-28-28-28H91.7c-15.5 0-28 12.5-28 28v15.5c-0.2 157.7-0.4 335.9 177.6 424.8v59.2c0 15.5 12.6 28 28 28h357c15.5 0 28-12.5 28-28v-59.2c38.5-19.2 68.6-42.7 92.2-69.1 104.7-32.9 171.6-81.2 199-143.5 16.2-36.9 16.7-78 1.5-110.2zM615 659.7c-1.2 0.5-2.4 1.2-3.6 1.9h-37.2c-10.3 0-18.7 8.4-18.7 18.7 0 10.3 8.4 18.7 18.7 18.7h24.1v35.4h-301V699h183.9c10.3 0 18.7-8.4 18.7-18.7 0-10.3-8.4-18.7-18.7-18.7h-197c-1.1-0.7-2.3-1.3-3.5-1.9C151.6 602.8 126 495 120.9 372.5h448c10.3 0 18.7-8.4 18.7-18.7 0-10.3-8.3-18.7-18.7-18.7h-449c-0.2-14.7-0.2-29.5-0.2-44.4h656.2c0 14.9 0 29.7-0.2 44.4H672.4c-10.3 0-18.7 8.4-18.7 18.7 0 10.3 8.3 18.7 18.7 18.7h102.3C769.7 495 744 602.8 615 659.7zM894.3 468c-10.5 23.9-35.3 55.2-92.4 84 22.6-55.6 28-116.4 29.4-173.5 5.7-1 11.1-1.5 16.3-1.5 32.3 0 44.8 19.1 48.7 27.3 6.6 13.7 9.4 37.6-2 63.7z"  p-id="8428"></path></svg>