<?xml version="1.0" standalone="no"?><!DOCTYPE svg PUBLIC "-//W3C//DTD SVG 1.1//EN" "http://www.w3.org/Graphics/SVG/1.1/DTD/svg11.dtd"><svg t="1646066957153" class="icon" viewBox="0 0 1024 1024" version="1.1" xmlns="http://www.w3.org/2000/svg" p-id="2754" xmlns:xlink="http://www.w3.org/1999/xlink" width="48" height="48"><defs><style type="text/css"></style></defs><path d="M815.388444 233.073778c-13.710222-7.736889-48.412444-13.255111-69.290666-15.928889v-38.115556a34.929778 34.929778 0 0 0-34.929778-34.872889h-87.722667A95.573333 95.573333 0 0 0 528.611556 58.026667a95.573333 95.573333 0 0 0-94.947556 86.129777h-88.177778a34.929778 34.929778 0 0 0-34.929778 34.929778v36.067556h-0.284444c-29.866667 0.739556-49.095111 6.826667-69.575111 18.602666A139.605333 139.605333 0 0 0 170.666667 354.872889v471.381333a139.605333 139.605333 0 0 0 139.605333 139.662222h436.565333c77.141333 0 139.662222-62.577778 139.662223-139.662222V354.816c0-52.224-28.672-97.735111-71.111112-121.742222z m-452.664888-18.773334c0-9.671111 7.793778-17.521778 17.408-17.521777h70.087111s5.859556 0.341333 8.931555 0.341333c14.392889 0 26.737778-11.377778 26.737778-25.941333l-0.113778-8.874667v-17.066667a43.747556 43.747556 0 0 1 85.617778 0l-0.056889 17.578667 0.056889 9.045333c0 14.506667 12.8 25.031111 27.192889 25.031111l8.533333-0.113777h69.404445c9.671111 0 17.408 7.850667 17.408 17.521777v54.044445c0 9.671111-7.793778 17.521778-17.408 17.521778h-296.391111a17.464889 17.464889 0 0 1-17.408-17.521778v-54.044445z m471.381333 579.128889c0 29.923556-3.527111 64.739556-21.617778 85.788445-21.902222 25.543111-61.553778 34.360889-97.564444 34.360889h-372.622223c-34.986667 0-73.443556-8.192-95.288888-32.256-19.342222-21.390222-23.950222-56.888889-23.950223-87.950223v-405.617777c0-26.168889-0.398222-54.897778 10.353778-74.581334 7.68-13.994667 18.545778-25.713778 33.393778-34.360889 9.898667-5.802667 27.875556-9.955556 43.804444-12.572444v37.319111c0 19.285333 15.587556 34.929778 34.929778 34.929778H711.111111a34.986667 34.986667 0 0 0 34.929778-34.929778v-34.872889c16.611556 2.844444 33.507556 6.542222 40.391111 10.410667 12.060444 6.826667 21.845333 15.872 29.468444 26.339555 15.246222 21.048889 18.204444 52.337778 18.204445 82.261334v405.674666z m-136.874667-316.416h-337.351111c-8.078222 0-14.620444 11.776-14.620444 26.168889 0 14.506667 6.542222 26.168889 14.620444 26.168889h337.351111c8.078222 0 14.677333-11.662222 14.677334-26.168889 0-14.392889-6.599111-26.168889-14.677334-26.168889z m0 122.254223h-337.351111c-8.078222 0-14.620444 11.719111-14.620444 26.168888 0 14.506667 6.542222 26.168889 14.620444 26.168889h337.351111c8.078222 0 14.677333-11.662222 14.677334-26.168889 0-14.449778-6.599111-26.168889-14.677334-26.168888z m0 122.254222h-337.351111c-8.078222 0-14.620444 11.719111-14.620444 26.168889s6.542222 26.168889 14.620444 26.168889h337.351111c8.078222 0 14.677333-11.719111 14.677334-26.168889s-6.599111-26.168889-14.677334-26.168889z" fill="currentColor" p-id="2755"></path></svg>