<?xml version="1.0" standalone="no"?><!DOCTYPE svg PUBLIC "-//W3C//DTD SVG 1.1//EN" "http://www.w3.org/Graphics/SVG/1.1/DTD/svg11.dtd"><svg t="1646300195188" class="icon" viewBox="0 0 1024 1024" version="1.1" xmlns="http://www.w3.org/2000/svg" p-id="4655" xmlns:xlink="http://www.w3.org/1999/xlink" width="48" height="48"><defs><style type="text/css"></style></defs><path d="M832 32a96 96 0 0 1 96 96v754.112a96 96 0 0 1-159.552 71.968l-235.264-207.744a32 32 0 0 0-42.368 0l-235.264 207.744A96 96 0 0 1 96 882.112V128a96 96 0 0 1 96-96z m0 64H192a32 32 0 0 0-32 32v754.112a32 32 0 0 0 53.184 24l235.264-207.744a96 96 0 0 1 127.104 0l235.264 207.744a32 32 0 0 0 53.184-24V128a32 32 0 0 0-32-32z m-256 320a32 32 0 0 1 0 64H288a32 32 0 0 1 0-64h288z m160-160a32 32 0 0 1 0 64H288a32 32 0 1 1 0-64h448z" p-id="4656" fill="currentColor"></path></svg>