<?xml version="1.0" standalone="no"?><!DOCTYPE svg PUBLIC "-//W3C//DTD SVG 1.1//EN" "http://www.w3.org/Graphics/SVG/1.1/DTD/svg11.dtd"><svg t="1646892263820" class="icon" viewBox="0 0 1024 1024" version="1.1" xmlns="http://www.w3.org/2000/svg" p-id="6853" xmlns:xlink="http://www.w3.org/1999/xlink" width="48" height="48"><defs><style type="text/css"></style></defs><path d="M548.096 814.848a206.250667 206.250667 0 0 1-11.648-119.552c-7.68 0-14.72-0.128-21.76 0.042667-86.698667 2.133333-171.733333-7.509333-254.122667-35.626667-40.789333-13.909333-79.445333-32.213333-113.408-59.136-24.746667-19.626667-45.653333-42.581333-55.893333-73.130667A104.832 104.832 0 0 1 95.573333 448a6.101333 6.101333 0 0 1 9.386667-2.261333c27.989333 22.272 46.848 37.034667 56.533333 44.288 2.389333 1.792 5.888 16.341333 16.426667 27.733333 19.2 20.736 40.192 34.986667 64.341333 46.933333 43.136 21.205333 89.088 33.408 136.362667 41.045334a701.013333 701.013333 0 0 0 193.408 4.394666 13.44 13.44 0 0 0 7.765333-4.224c32.725333-37.717333 73.472-61.312 122.965334-69.418666a197.077333 197.077333 0 0 1 73.642666 1.621333c4.736 1.024 8.32 0.384 11.946667-2.901333 9.856-9.045333 20.48-19.584 26.538667-28.586667 6.101333-8.96 8.533333-18.048 16.426666-23.893333 15.530667-11.434667 16.469333-13.397333 34.090667-28.970667 1.493333-1.322667 4.48-3.797333 9.002667-7.338667a9.557333 9.557333 0 0 1 14.848 4.138667c8.106667 21.546667 10.282667 35.968 7.509333 57.386667s-17.322667 49.152-35.328 69.333333c20.864 16.725333 37.632 36.266667 50.688 58.922667 50.773333 88.32 26.666667 201.984-55.637333 262.442666a203.392 203.392 0 0 1-233.173334 6.314667c-4.181333-2.730667-8.661333-5.333333-12.117333-8.874667-5.162667-5.248-10.794667-5.546667-17.578667-4.608-49.962667 6.741333-100.138667 7.893333-150.442666 5.077334a704.341333 704.341333 0 0 1-148.992-23.978667c-39.68-11.008-77.866667-25.557333-113.365334-46.549333-29.781333-17.664-56.874667-38.570667-75.818666-68.096-24.362667-37.973333-26.24-76.842667-5.034667-116.096a5.333333 5.333333 0 0 1 8.704-1.024c22.741333 25.6 39.893333 42.325333 51.456 50.346666 3.754667 2.56 5.888 11.392 8.533333 15.914667 5.461333 9.514667 9.301333 14.378667 17.578667 22.442667 18.645333 18.261333 40.96 30.933333 64.469333 41.642666 47.018667 21.418667 96.725333 33.28 147.754667 39.936 44.544 5.888 89.258667 7.68 134.144 5.034667 4.949333-0.298667 9.898667-0.853333 15.445333-1.322667z m192.469333-111.36h-64.682666c-20.608 0.170667-36.821333 15.402667-36.992 34.730667-0.170667 20.650667 15.701333 36.48 37.12 36.522666 42.922667 0.128 85.845333 0.128 128.768-0.085333 4.949333 0 10.154667-0.810667 14.72-2.56a35.498667 35.498667 0 1 0-12.928-68.565333c-22.016-0.170667-43.989333 0-66.005334-0.042667zM491.690667 85.333333c68.608 1.152 136.064 9.045333 202.026666 27.776 42.069333 11.946667 82.474667 27.989333 119.466667 51.626667 24.746667 15.786667 47.104 34.304 63.829333 58.709333 30.805333 45.013333 29.098667 94.549333-4.437333 137.813334-24.277333 31.274667-56.149333 52.949333-91.093333 70.528-51.541333 25.856-106.453333 41.045333-163.2 50.304a788.437333 788.437333 0 0 1-192.512 7.253333c-73.557333-6.058667-145.024-21.077333-212.352-52.394667-32.512-15.104-62.72-33.706667-87.893334-59.605333-19.157333-19.712-33.792-42.069333-38.528-69.674667-5.802667-33.877333 4.010667-63.658667 24.576-90.368 24.874667-32.256 57.856-54.229333 93.909334-71.936 61.653333-30.250667 127.36-46.293333 195.285333-53.504 30.208-3.2 60.586667-4.394667 90.922667-6.528z m-6.058667 325.632c62.165333-0.170667 116.224-5.802667 169.386667-19.157333 40.362667-10.154667 79.274667-24.064 114.645333-46.506667 15.488-9.813333 29.781333-21.077333 40.405333-36.266666 10.197333-14.506667 10.410667-25.386667-0.213333-39.637334a127.189333 127.189333 0 0 0-19.669333-20.992c-27.946667-23.552-60.757333-38.314667-95.061334-49.92-59.008-19.882667-119.936-28.8-182.101333-30.592-63.189333-1.834667-125.610667 3.968-186.922667 19.584-40.789333 10.368-79.957333 24.832-115.328 48.213334-13.696 9.045333-26.325333 19.370667-36.010666 32.810666-11.221333 15.488-11.52 26.453333 0.256 41.6 6.4 8.192 13.781333 15.829333 21.845333 22.357334 28.544 23.125333 61.696 37.632 96.256 48.981333 64.938667 21.248 131.882667 29.397333 192.512 29.525333z" fill="currentColor" p-id="6854"></path></svg>