<?xml version="1.0" standalone="no"?><!DOCTYPE svg PUBLIC "-//W3C//DTD SVG 1.1//EN" "http://www.w3.org/Graphics/SVG/1.1/DTD/svg11.dtd"><svg t="1646705609311" class="icon" viewBox="0 0 1024 1024" version="1.1" xmlns="http://www.w3.org/2000/svg" p-id="17944" data-spm-anchor-id="a313x.7781069.0.i5" xmlns:xlink="http://www.w3.org/1999/xlink" width="48" height="48"><defs><style type="text/css"></style></defs><path d="M813 467H238.9V342.9c0-33 27-60 60-60H753c33 0 60 27 60 60V467z" fill="#ffc0cb" p-id="17945" data-spm-anchor-id="a313x.7781069.0.i4" class="selected"></path><path d="M833 487H218.9V342.9c0-44.1 35.9-80 80-80H753c44.1 0 80 35.9 80 80V487z m-574.1-40H793V342.9c0-22.1-17.9-40-40-40H298.9c-22.1 0-40 17.9-40 40V447z" fill="" p-id="17946"></path><path d="M753 875H298.9c-44.1 0-80-35.9-80-80V340.8c0-44.1 35.9-80 80-80H753c44.1 0 80 35.9 80 80V795c0 44.1-35.9 80-80 80zM298.9 300.8c-22.1 0-40 17.9-40 40V795c0 22.1 17.9 40 40 40H753c22.1 0 40-17.9 40-40V340.8c0-22.1-17.9-40-40-40H298.9z" fill="" p-id="17947"></path><path d="M289.8 621.5h110.8" fill="#FFD345" p-id="17948"></path><path d="M289.8 601.5h110.8v40H289.8z" fill="" p-id="17949"></path><path d="M474.6 621.5h110.9" fill="#FFD345" p-id="17950"></path><path d="M474.6 601.5h110.8v40H474.6z" fill="" p-id="17951"></path><path d="M474.5 720.2h110.9" fill="#FFD345" p-id="17952"></path><path d="M474.5 700.2h110.8v40H474.5z" fill="" p-id="17953"></path><path d="M647.7 621.5h110.8" fill="#FFD345" p-id="17954"></path><path d="M647.7 601.5h110.8v40H647.7z" fill="" p-id="17955"></path><path d="M647.4 722.4h110.8" fill="#FFD345" p-id="17956"></path><path d="M647.4 702.4h110.8v40H647.4z" fill="" p-id="17957"></path><path d="M288.4 720.2h110.9" fill="#FFD345" p-id="17958"></path><path d="M288.4 700.2h110.8v40H288.4z" fill="" p-id="17959"></path><path d="M386.9 347.5c-11 0-20-9-20-20V210.8c0-11 9-20 20-20s20 9 20 20v116.7c0 11.1-8.9 20-20 20z" fill="" p-id="17960"></path><path d="M707 347c-11 0-20-9-20-20V210.3c0-11 9-20 20-20s20 9 20 20V327c0 11-9 20-20 20z" fill="" p-id="17961"></path></svg>